<!DOCTYPE svg PUBLIC "-//W3C//DTD SVG 1.1//EN" "http://www.w3.org/Graphics/SVG/1.1/DTD/svg11.dtd">
<!-- Uploaded to: SVG Repo, www.svgrepo.com, Transformed by: SVG Repo Mixer Tools -->
<svg fill="#ffffff" height="800px" width="800px" version="1.1" id="Layer_1" xmlns="http://www.w3.org/2000/svg" xmlns:xlink="http://www.w3.org/1999/xlink" viewBox="0 0 290.00 290.00" xml:space="preserve">
<g id="SVGRepo_bgCarrier" stroke-width="0"/>
<g id="SVGRepo_tracerCarrier" stroke-linecap="round" stroke-linejoin="round"/>
<g id="SVGRepo_iconCarrier"> <g> <path d="M255,110c-19.299,0-35,15.701-35,35s15.701,35,35,35s35-15.701,35-35S274.299,110,255,110z"/> <path d="M35,110c-19.299,0-35,15.701-35,35s15.701,35,35,35s35-15.701,35-35S54.299,110,35,110z"/> <path d="M145,110c-19.299,0-35,15.701-35,35s15.701,35,35,35s35-15.701,35-35S164.299,110,145,110z"/> </g> </g>
</svg>